<svg width="53" height="9" viewBox="0 0 53 9" fill="none" xmlns="http://www.w3.org/2000/svg">
<path d="M4.88232 5.98584C4.88232 5.64209 4.76058 5.37712 4.51709 5.19092C4.27718 5.00472 3.84212 4.81673 3.21191 4.62695C2.58171 4.43717 2.0804 4.22591 1.70801 3.99316C0.995443 3.54557 0.63916 2.96191 0.63916 2.24219C0.63916 1.61198 0.895182 1.09277 1.40723 0.68457C1.92285 0.276367 2.59066 0.0722656 3.41064 0.0722656C3.95492 0.0722656 4.4401 0.172526 4.86621 0.373047C5.29232 0.573568 5.62712 0.860026 5.87061 1.23242C6.1141 1.60124 6.23584 2.01123 6.23584 2.4624H4.88232C4.88232 2.0542 4.75342 1.73551 4.49561 1.50635C4.24137 1.2736 3.87614 1.15723 3.3999 1.15723C2.95589 1.15723 2.61035 1.25212 2.36328 1.44189C2.11979 1.63167 1.99805 1.89665 1.99805 2.23682C1.99805 2.52327 2.13053 2.76318 2.39551 2.95654C2.66048 3.14632 3.09733 3.33252 3.70605 3.51514C4.31478 3.69417 4.80355 3.90007 5.17236 4.13281C5.54118 4.36198 5.81152 4.62695 5.9834 4.92773C6.15527 5.22493 6.24121 5.57406 6.24121 5.9751C6.24121 6.62679 5.99056 7.146 5.48926 7.53271C4.99154 7.91585 4.31478 8.10742 3.45898 8.10742C2.89323 8.10742 2.37223 8.00358 1.896 7.7959C1.42334 7.58464 1.05452 7.2946 0.789551 6.92578C0.528158 6.55697 0.397461 6.12728 0.397461 5.63672H1.75635C1.75635 6.08073 1.90316 6.42448 2.19678 6.66797C2.4904 6.91146 2.91113 7.0332 3.45898 7.0332C3.93164 7.0332 4.28613 6.93831 4.52246 6.74854C4.76237 6.55518 4.88232 6.30094 4.88232 5.98584ZM9.8667 8.10742C9.03955 8.10742 8.36816 7.84782 7.85254 7.32861C7.34049 6.80583 7.08447 6.11117 7.08447 5.24463V5.0835C7.08447 4.50342 7.19548 3.986 7.41748 3.53125C7.64307 3.07292 7.95817 2.71663 8.36279 2.4624C8.76742 2.20817 9.21859 2.08105 9.71631 2.08105C10.5076 2.08105 11.1182 2.3335 11.5479 2.83838C11.9811 3.34326 12.1978 4.05762 12.1978 4.98145V5.50781H8.40039C8.43978 5.98763 8.59912 6.36719 8.87842 6.64648C9.1613 6.92578 9.51579 7.06543 9.94189 7.06543C10.5399 7.06543 11.0269 6.82373 11.4028 6.34033L12.1064 7.01172C11.8737 7.35905 11.5622 7.62939 11.1719 7.82275C10.7852 8.01253 10.3501 8.10742 9.8667 8.10742ZM9.71094 3.12842C9.35286 3.12842 9.06283 3.25374 8.84082 3.50439C8.6224 3.75505 8.48275 4.10417 8.42188 4.55176H10.9087V4.45508C10.88 4.01823 10.7637 3.6888 10.5596 3.4668C10.3555 3.24121 10.0726 3.12842 9.71094 3.12842ZM15.7749 8.10742C14.9478 8.10742 14.2764 7.84782 13.7607 7.32861C13.2487 6.80583 12.9927 6.11117 12.9927 5.24463V5.0835C12.9927 4.50342 13.1037 3.986 13.3257 3.53125C13.5513 3.07292 13.8664 2.71663 14.271 2.4624C14.6756 2.20817 15.1268 2.08105 15.6245 2.08105C16.4159 2.08105 17.0264 2.3335 17.4561 2.83838C17.8893 3.34326 18.106 4.05762 18.106 4.98145V5.50781H14.3086C14.348 5.98763 14.5073 6.36719 14.7866 6.64648C15.0695 6.92578 15.424 7.06543 15.8501 7.06543C16.4481 7.06543 16.9351 6.82373 17.311 6.34033L18.0146 7.01172C17.7819 7.35905 17.4704 7.62939 17.0801 7.82275C16.6934 8.01253 16.2583 8.10742 15.7749 8.10742ZM15.6191 3.12842C15.2611 3.12842 14.971 3.25374 14.749 3.50439C14.5306 3.75505 14.391 4.10417 14.3301 4.55176H16.8169V4.45508C16.7882 4.01823 16.6719 3.6888 16.4678 3.4668C16.2637 3.24121 15.9808 3.12842 15.6191 3.12842ZM23.0903 2.18848L23.1279 2.79541C23.5361 2.31917 24.0947 2.08105 24.8037 2.08105C25.5807 2.08105 26.1125 2.37826 26.3989 2.97266C26.8215 2.37826 27.4159 2.08105 28.1821 2.08105C28.8231 2.08105 29.2993 2.2583 29.6108 2.61279C29.9259 2.96729 30.0871 3.49007 30.0942 4.18115V8H28.7891V4.21875C28.7891 3.84993 28.7085 3.57959 28.5474 3.40771C28.3862 3.23584 28.1195 3.1499 27.7471 3.1499C27.4499 3.1499 27.2064 3.23047 27.0166 3.3916C26.8304 3.54915 26.6997 3.75684 26.6245 4.01465L26.6299 8H25.3247V4.17578C25.3068 3.49186 24.9577 3.1499 24.2773 3.1499C23.7546 3.1499 23.384 3.36296 23.1655 3.78906V8H21.8604V2.18848H23.0903ZM31.1899 5.04053C31.1899 4.47119 31.3027 3.95915 31.5283 3.50439C31.7539 3.04606 32.0708 2.69515 32.479 2.45166C32.8872 2.20459 33.3563 2.08105 33.8862 2.08105C34.6704 2.08105 35.306 2.3335 35.793 2.83838C36.2835 3.34326 36.5485 4.01286 36.5879 4.84717L36.5933 5.15332C36.5933 5.72624 36.4823 6.23828 36.2603 6.68945C36.0418 7.14062 35.7267 7.48975 35.3149 7.73682C34.9067 7.98389 34.4341 8.10742 33.897 8.10742C33.077 8.10742 32.4199 7.83529 31.9258 7.29102C31.4352 6.74316 31.1899 6.01449 31.1899 5.10498V5.04053ZM32.4951 5.15332C32.4951 5.7513 32.6187 6.22038 32.8657 6.56055C33.1128 6.89714 33.4565 7.06543 33.897 7.06543C34.3374 7.06543 34.6794 6.89355 34.9229 6.5498C35.1699 6.20605 35.2935 5.70296 35.2935 5.04053C35.2935 4.45329 35.1663 3.98779 34.9121 3.64404C34.6615 3.30029 34.3195 3.12842 33.8862 3.12842C33.4601 3.12842 33.1217 3.2985 32.8711 3.63867C32.6204 3.97526 32.4951 4.48014 32.4951 5.15332ZM40.7397 3.38086C40.5679 3.35221 40.3906 3.33789 40.208 3.33789C39.61 3.33789 39.2072 3.56706 38.9995 4.02539V8H37.6943V2.18848H38.9404L38.9727 2.83838C39.2878 2.3335 39.7246 2.08105 40.2832 2.08105C40.4694 2.08105 40.6234 2.10612 40.7451 2.15625L40.7397 3.38086ZM44.0161 8.10742C43.189 8.10742 42.5176 7.84782 42.002 7.32861C41.4899 6.80583 41.2339 6.11117 41.2339 5.24463V5.0835C41.2339 4.50342 41.3449 3.986 41.5669 3.53125C41.7925 3.07292 42.1076 2.71663 42.5122 2.4624C42.9168 2.20817 43.368 2.08105 43.8657 2.08105C44.6571 2.08105 45.2676 2.3335 45.6973 2.83838C46.1305 3.34326 46.3472 4.05762 46.3472 4.98145V5.50781H42.5498C42.5892 5.98763 42.7485 6.36719 43.0278 6.64648C43.3107 6.92578 43.6652 7.06543 44.0913 7.06543C44.6893 7.06543 45.1763 6.82373 45.5522 6.34033L46.2559 7.01172C46.0231 7.35905 45.7116 7.62939 45.3213 7.82275C44.9346 8.01253 44.4995 8.10742 44.0161 8.10742ZM43.8604 3.12842C43.5023 3.12842 43.2122 3.25374 42.9902 3.50439C42.7718 3.75505 42.6322 4.10417 42.5713 4.55176H45.0581V4.45508C45.0295 4.01823 44.9131 3.6888 44.709 3.4668C44.5049 3.24121 44.222 3.12842 43.8604 3.12842ZM50.7031 4.58398L47.3838 3.36475V2.08105L52.0244 4.0791V5.11572L47.3838 7.11377V5.83008L50.7031 4.58398Z" fill="black"/>
</svg>
